# xmcd
#
# Track frame offsets: 
#        150
#        13628
#        26744
#        38912
#        52047
#        64978
#        77469
#        89088
#        102739
#        115553
#        127396
#        141617
#        155678
#        166747
#        180894
#        194384
#        204716
#        217567
#        231144
#        243149
#        256772
#        268865
#        283451
#        295515
#        307889
#
# Disc length: 4270 seconds
#
# Revision: 0
# Processed by: cddbd v1.5.2PL0 Copyright (c) Steve Scherf et al.
# Submitted via: ExactAudioCopy v1.0b3
#
DISCID=6d10ac19
DTITLE=Various Artist - R&B Years 1946 CD2
DYEAR=1900
DGENRE=
TTITLE0=Roy Milton - RM Blues
TTITLE1=Cecil Gant - Nashville Jumps
TTITLE2=Wini Beatty - That Ain't Right, Baby
TTITLE3=Annisteen Allen - I Want A Man (Who's Gonna Do Right)
TTITLE4=Louis Jordan - Beware
TTITLE5=Frank Haywood - You Gotta Give It Up
TTITLE6=Betty Nays/Tab Smith Orch. - Fat Mouth Blues
TTITLE7=Red Callender - Red Boogie
TTITLE8=Memphis Slim - Grinder Man Blues
TTITLE9=Annisteen Allen/Lucky Millinder - There's Gopod Blues Tonight
TTITLE10=Cee Pee Johnson - The G Man Got The T Man
TTITLE11=Helen Humes - Pleasing Man Blues
TTITLE12=Hadda Brooks - Society Boogie
TTITLE13=Dinah Washington - Mellow Mama Blues
TTITLE14=Marvin Johnson - Safronia Bee
TTITLE15=Ace Harris - I'll Show You How It's Done
TTITLE16=Albert Ammons/Mildred Anderson - Doin' The Boogie Woogie
TTITLE17=Johnny Moore's Blazers/Charles Brwon - Race Track Blues
TTITLE18=Pete Johnson - Atomic Boogie
TTITLE19=Nat King Cole - Get Your Kicks On Route 66
TTITLE20=Mary DePina - Boogie Woogie Man
TTITLE21=Lucky Millinder - Shorty's Got To Go
TTITLE22=Wynobie Harris - Playful Baby
TTITLE23=Bull Mosse Jackson - I Know Who Threw The Whisky In The Well
TTITLE24=The Ravens - Bye Bye Baby Blues
EXTD=
EXTT0=
EXTT1=
EXTT2=
EXTT3=
EXTT4=
EXTT5=
EXTT6=
EXTT7=
EXTT8=
EXTT9=
EXTT10=
EXTT11=
EXTT12=
EXTT13=
EXTT14=
EXTT15=
EXTT16=
EXTT17=
EXTT18=
EXTT19=
EXTT20=
EXTT21=
EXTT22=
EXTT23=
EXTT24=
PLAYORDER=
